<svg width="353" height="98" viewBox="0 0 353 98" fill="none" xmlns="http://www.w3.org/2000/svg">
<g clip-path="url(#clip0_1_2)">
<rect x="4.5" y="3.5" width="344" height="91" stroke="#B9B9ED" stroke-width="3"/>
<rect x="11" y="10" width="166" height="78" fill="#B9B9ED"/>
<path d="M51.52 63.52C45.12 63.52 41 60.08 40.8 54.68H43.2C43.44 58.8 46.68 61.2 51.52 61.2C56.12 61.2 58.96 59.16 58.96 55.92C58.96 53 56.68 51.28 51.04 50.04C44.16 48.44 41.24 46.12 41.24 41.92C41.24 37.44 44.88 34.48 50.84 34.48C57 34.48 60.76 37.6 60.96 43H58.56C58.36 39.04 55.52 36.8 50.84 36.8C46.32 36.8 43.68 38.84 43.68 41.92C43.68 44.72 45.76 46.44 51.64 47.76C58.72 49.4 61.44 51.88 61.44 55.88C61.44 60.56 57.6 63.52 51.52 63.52ZM68.8091 63V35H71.2491V47.6H75.6891C80.0491 47.6 81.8891 46.12 83.1691 42.8L86.1291 35H88.6891L85.3291 43.76C84.4491 46.04 83.2891 47.64 81.4891 48.64L89.8491 63H87.0491L79.2491 49.52C78.2091 49.8 77.0491 49.92 75.6891 49.92H71.2491V63H68.8091ZM96.0747 63V35H98.5147V63H96.0747ZM107.559 63V35H109.999V60.68H124.199V63H107.559ZM130.098 63V35H132.538V60.68H146.738V63H130.098Z" fill="white"/>
<path d="M214.24 63.6C205.2 63.6 199.08 57.68 199.08 49C199.08 40.36 205.2 34.4 214.12 34.4C221.44 34.4 227.2 38.4 228.84 44.72H219.04C218.08 43.36 216.32 42.52 214.24 42.52C210.56 42.52 208.12 45.12 208.12 49C208.12 52.76 210.4 55.52 214.36 55.52C216.96 55.52 218.8 54.36 219.64 52.52H212.76V46.68H229.24C230.28 56.52 224.16 63.6 214.24 63.6ZM232.864 63V35H246.704C253.784 35 258.144 38.92 258.144 45.28C258.144 49 256.664 51.88 254.024 53.64L258.704 63H248.064L244.744 55.56H242.464V63H232.864ZM242.304 48.44H245.144C247.264 48.44 248.464 47.36 248.464 45.44C248.464 43.48 247.264 42.44 245.144 42.44H242.304V48.44ZM259.8 63L270.2 35H280.28L290.72 63H280.56L279.32 59.52H271.12L269.88 63H259.8ZM272.72 53.12H277.8L275.32 45.44H275.16L272.72 53.12ZM293.372 63V35H301.212L309.932 46.76L318.692 35H326.492V63H317.052V56.56L317.132 50.8H317.012L312.612 56.84H307.252L302.852 50.76L302.732 50.8L302.812 56.56V63H293.372Z" fill="#B9B9ED"/>
</g>
<defs>
<clipPath id="clip0_1_2">
<rect width="353" height="98" fill="white"/>
</clipPath>
</defs>
</svg>

