<svg width="14" height="15" viewBox="0 0 14 15" fill="none" xmlns="http://www.w3.org/2000/svg">
<g id="Guide Logo" clip-path="url(#clip0_4124_4585)">
<path id="icon" fill-rule="evenodd" clip-rule="evenodd" d="M7.52637 9.83109C8.10738 9.49499 8.61448 9.04534 9.01733 8.51248C8.89389 8.32421 8.79952 8.1037 8.74419 7.85097L8.72501 7.76333C8.61262 7.24991 8.20077 6.8555 7.68297 6.76542C5.61116 6.40498 5.61111 3.43078 7.68297 3.07033C8.18388 2.98319 8.58564 2.61125 8.71305 2.12232C7.79899 1.12518 6.48569 0.5 5.02637 0.5C2.26495 0.5 0.0263672 2.73858 0.0263672 5.5C0.0263672 7.35071 1.03187 8.96657 2.52637 9.83109V11C2.52637 11.5523 2.97409 12 3.52637 12H6.52637C7.07866 12 7.52637 11.5523 7.52637 11V9.83109ZM2.52637 13.75C2.52637 13.3358 2.86216 13 3.27637 13H6.77637C7.19058 13 7.52637 13.3358 7.52637 13.75C7.52637 14.1642 7.19058 14.5 6.77637 14.5H3.27637C2.86216 14.5 2.52637 14.1642 2.52637 13.75ZM9.80626 2.21727C9.98934 1.38094 11.1802 1.37573 11.3706 2.21043L11.3796 2.24989C11.3856 2.27679 11.3913 2.30164 11.3974 2.32754C11.6167 3.26163 12.3726 3.97537 13.3189 4.14C14.1912 4.29176 14.1912 5.54399 13.3189 5.69575C12.3676 5.86126 11.6086 6.58174 11.3939 7.52319L11.3706 7.62532C11.1802 8.46003 9.98934 8.45481 9.80626 7.61848L9.78708 7.53085C9.58024 6.58595 8.82229 5.86009 7.86933 5.69431C6.99865 5.54283 6.99864 4.29292 7.86933 4.14145C8.81897 3.97624 9.57496 3.25485 9.7849 2.31478L9.79906 2.25029L9.80626 2.21727Z" fill="black"/>
</g>
<defs>
<clipPath id="clip0_4124_4585">
<rect width="14" height="14" fill="white" transform="translate(0 0.5)"/>
</clipPath>
</defs>
</svg>
