<svg width="123" height="34" viewBox="0 0 123 34" fill="none" xmlns="http://www.w3.org/2000/svg">
<rect x="1.47365" y="1.47365" width="120.71" height="31.932" stroke="black" stroke-width="1.0527"/>
<rect x="3.5957" y="3.75464" width="58.2495" height="27.3703" fill="black"/>
<path d="M74.723 23.0005C71.5509 23.0005 69.4034 20.9231 69.4034 17.8773C69.4034 14.8455 71.5509 12.7542 74.6809 12.7542C77.2495 12.7542 79.2707 14.1578 79.8462 16.3755H76.4074C76.0705 15.8982 75.4529 15.6035 74.723 15.6035C73.4317 15.6035 72.5755 16.5158 72.5755 17.8773C72.5755 19.1967 73.3756 20.1652 74.7651 20.1652C75.6775 20.1652 76.3231 19.7581 76.6179 19.1125H74.2037V17.0632H79.9866C80.3515 20.5161 78.204 23.0005 74.723 23.0005ZM81.2581 22.7899V12.9647H86.1146C88.599 12.9647 90.1289 14.3402 90.1289 16.572C90.1289 17.8773 89.6096 18.8879 88.6832 19.5055L90.3254 22.7899H86.5918L85.4268 20.1792H84.6268V22.7899H81.2581ZM84.5706 17.6808H85.5672C86.3111 17.6808 86.7322 17.3018 86.7322 16.6281C86.7322 15.9403 86.3111 15.5754 85.5672 15.5754H84.5706V17.6808ZM90.71 22.7899L94.3593 12.9647H97.8964L101.56 22.7899H97.9947L97.5595 21.5688H94.6822L94.247 22.7899H90.71ZM95.2436 19.323H97.0262L96.1559 16.6281H96.0998L95.2436 19.323ZM102.49 22.7899V12.9647H105.241L108.301 17.0913L111.375 12.9647H114.112V22.7899H110.8V20.5301L110.828 18.5089H110.786L109.242 20.6284H107.361L105.817 18.4949L105.775 18.5089L105.803 20.5301V22.7899H102.49Z" fill="black"/>
<path d="M17.9732 22.4461C15.7274 22.4461 14.2817 21.239 14.2115 19.3442H15.0537C15.1379 20.7899 16.2748 21.6321 17.9732 21.6321C19.5873 21.6321 20.5839 20.9162 20.5839 19.7793C20.5839 18.7547 19.7838 18.1511 17.8047 17.716C15.3906 17.1546 14.3659 16.3405 14.3659 14.8667C14.3659 13.2946 15.6432 12.256 17.7346 12.256C19.8961 12.256 21.2155 13.3508 21.2857 15.2457H20.4435C20.3733 13.8561 19.3768 13.0701 17.7346 13.0701C16.1485 13.0701 15.2221 13.7859 15.2221 14.8667C15.2221 15.8492 15.952 16.4528 18.0153 16.9159C20.4997 17.4914 21.4541 18.3617 21.4541 19.7653C21.4541 21.4075 20.1067 22.4461 17.9732 22.4461ZM24.0399 22.2637V12.4385H24.8961V16.8598H26.4541C27.9841 16.8598 28.6297 16.3405 29.0789 15.1755L30.1175 12.4385H31.0158L29.8368 15.5123C29.528 16.3124 29.121 16.8738 28.4893 17.2247L31.4229 22.2637H30.4404L27.7033 17.5335C27.3384 17.6318 26.9313 17.6739 26.4541 17.6739H24.8961V22.2637H24.0399ZM33.6075 22.2637V12.4385H34.4637V22.2637H33.6075ZM37.6373 22.2637V12.4385H38.4935V21.4496H43.4763V22.2637H37.6373ZM45.5463 22.2637V12.4385H46.4025V21.4496H51.3853V22.2637H45.5463Z" fill="white"/>
</svg>
