<svg width="154" height="42" viewBox="0 0 154 42" fill="none" xmlns="http://www.w3.org/2000/svg">
<rect x="1.34018" y="0.985196" width="151.32" height="40.0293" stroke="#1D1F23" stroke-width="1.31965"/>
<rect x="4" y="3.84424" width="73.0205" height="34.3109" fill="#1D1F23"/>
<path d="M21.8242 27.4719C19.0089 27.4719 17.1966 25.9587 17.1086 23.5833H18.1643C18.2699 25.3957 19.6951 26.4514 21.8242 26.4514C23.8476 26.4514 25.0969 25.554 25.0969 24.1288C25.0969 22.8443 24.094 22.0877 21.613 21.5423C18.5866 20.8385 17.3022 19.8179 17.3022 17.9704C17.3022 15.9998 18.9033 14.6977 21.525 14.6977C24.2347 14.6977 25.8887 16.0701 25.9767 18.4455H24.9209C24.833 16.7036 23.5837 15.7182 21.525 15.7182C19.5368 15.7182 18.3755 16.6156 18.3755 17.9704C18.3755 19.2021 19.2904 19.9587 21.877 20.5394C24.9913 21.2608 26.1878 22.3517 26.1878 24.1112C26.1878 26.1699 24.4987 27.4719 21.8242 27.4719ZM29.4293 27.2432V14.9264H30.5026V20.469H32.4557C34.3736 20.469 35.183 19.8179 35.746 18.3575L37.0481 14.9264H38.1742L36.6962 18.7798C36.3091 19.7828 35.7988 20.4866 35.007 20.9264L38.6845 27.2432H37.4528L34.0217 21.3135C33.5642 21.4367 33.054 21.4895 32.4557 21.4895H30.5026V27.2432H29.4293ZM41.423 27.2432V14.9264H42.4963V27.2432H41.423ZM46.4748 27.2432V14.9264H47.5481V26.2226H53.7944V27.2432H46.4748ZM56.3893 27.2432V14.9264H57.4626V26.2226H63.709V27.2432H56.3893Z" fill="white"/>
<path d="M93.1642 28.1672C89.1877 28.1672 86.4956 25.5631 86.4956 21.745C86.4956 17.9444 89.1877 15.3227 93.1114 15.3227C96.3314 15.3227 98.8651 17.0822 99.5865 19.8623H95.2756C94.8534 19.264 94.0792 18.8945 93.1642 18.8945C91.5454 18.8945 90.4721 20.0382 90.4721 21.745C90.4721 23.3989 91.4751 24.613 93.217 24.613C94.3607 24.613 95.1701 24.1027 95.5396 23.2933H92.5132V20.7244H99.7624C100.22 25.0529 97.5278 28.1672 93.1642 28.1672ZM101.356 27.9033V15.5866H107.444C110.559 15.5866 112.477 17.3109 112.477 20.1086C112.477 21.745 111.826 23.0118 110.664 23.786L112.723 27.9033H108.043L106.582 24.6306H105.579V27.9033H101.356ZM105.509 21.4986H106.758C107.691 21.4986 108.219 21.0236 108.219 20.179C108.219 19.3168 107.691 18.8593 106.758 18.8593H105.509V21.4986ZM113.205 27.9033L117.78 15.5866H122.214L126.806 27.9033H122.337L121.792 26.3725H118.185L117.639 27.9033H113.205ZM118.888 23.5573H121.123L120.032 20.179H119.962L118.888 23.5573ZM127.973 27.9033V15.5866H131.421L135.257 20.7596L139.111 15.5866H142.542V27.9033H138.389V25.0705L138.424 22.5368H138.372L136.436 25.1936H134.078L132.143 22.5192L132.09 22.5368L132.125 25.0705V27.9033H127.973Z" fill="#1D1F23"/>
</svg>
