<svg width="30" height="29" viewBox="0 0 30 29" fill="none" xmlns="http://www.w3.org/2000/svg">
<g id="Step 3 Icon" clip-path="url(#clip0_4124_4667)">
<path id="3 BG Circle Vector" d="M29.5 14.5C29.5 6.49188 23.0081 0 15 0C6.99188 0 0.5 6.49188 0.5 14.5C0.5 22.5081 6.99188 29 15 29C23.0081 29 29.5 22.5081 29.5 14.5Z" fill="url(#paint0_linear_4124_4667)"/>
<path id="3 Vector" fill-rule="evenodd" clip-rule="evenodd" d="M10.0502 12.0593L10.0727 11.4576C10.1228 10.1153 10.5692 9.00954 11.4671 8.22045C12.3532 7.44175 13.5242 7.08374 14.9127 7.08374C15.8326 7.08374 16.6541 7.24292 17.3562 7.58692C18.0569 7.92465 18.6097 8.39979 18.9836 9.02094C19.3618 9.63049 19.5477 10.3125 19.5477 11.0515C19.5477 11.9029 19.3333 12.6543 18.8591 13.2577L18.8571 13.2604L18.8549 13.2631C18.6726 13.4896 18.4743 13.6898 18.2599 13.8615C18.5773 14.0787 18.855 14.3432 19.0895 14.6559C19.5586 15.2814 19.7702 16.0572 19.7702 16.9374C19.7702 17.7381 19.5818 18.4708 19.1914 19.1177C18.8081 19.7604 18.2457 20.2542 17.5315 20.6053C16.8182 20.9615 15.9901 21.1276 15.0666 21.1276C13.6032 21.1276 12.3657 20.7666 11.4139 19.9867L11.4108 19.9842C10.4389 19.1766 9.96807 17.9838 9.91859 16.512L9.89844 15.9125H13.9055L13.9184 16.4793C13.9273 16.8724 14.0344 17.1233 14.1885 17.2925C14.321 17.4282 14.5474 17.538 14.964 17.538C15.2975 17.538 15.4697 17.4472 15.571 17.341L15.5714 17.3406C15.7024 17.2037 15.787 17.0137 15.787 16.7149C15.787 16.299 15.6611 16.1161 15.5113 16.0145L15.5023 16.0085L15.4936 16.0021C15.3033 15.8625 14.9045 15.7379 14.1769 15.7379H13.0494V12.1996H14.1769C14.6994 12.1996 15.0595 12.1118 15.2981 11.9818C15.4355 11.9037 15.5475 11.7681 15.5475 11.4108C15.5475 11.11 15.4669 10.9545 15.3751 10.8628C15.2804 10.768 15.1283 10.6905 14.8442 10.6905C14.5384 10.6905 14.399 10.7762 14.3206 10.8681C14.1981 11.0273 14.1131 11.2389 14.0874 11.5303L14.0407 12.0593H10.0502ZM13.8689 10.504C14.0857 10.2416 14.4108 10.1105 14.8442 10.1105C15.2435 10.1105 15.5571 10.2245 15.7853 10.4527C16.0134 10.6808 16.1275 11.0002 16.1275 11.4108C16.1275 11.9241 15.945 12.2834 15.5799 12.4888C15.2263 12.6827 14.7587 12.7796 14.1769 12.7796H13.6294V15.1579H14.1769C14.9412 15.1579 15.4944 15.2834 15.8366 15.5343C16.1902 15.7739 16.367 16.1674 16.367 16.7149C16.367 17.137 16.2415 17.4792 15.9906 17.7415C15.751 17.9925 15.4088 18.118 14.964 18.118C14.4393 18.118 14.04 17.9754 13.7663 17.6902C13.4925 17.3936 13.3499 16.9944 13.3385 16.4925H10.4983C10.505 16.6933 10.5201 16.8867 10.5436 17.0725C10.6788 18.1428 11.0915 18.9647 11.7815 19.5381C12.6028 20.2111 13.6978 20.5476 15.0666 20.5476C15.9221 20.5476 16.6579 20.3936 17.2738 20.0856C17.9012 19.7776 18.3746 19.3556 18.694 18.8195C19.0248 18.2719 19.1902 17.6446 19.1902 16.9374C19.1902 16.1503 19.0019 15.5058 18.6255 15.0039C18.3829 14.6805 18.0835 14.4162 17.7271 14.2112C17.5381 14.1024 17.3331 14.0103 17.112 13.9349C17.1032 13.9319 17.0944 13.9289 17.0856 13.926V13.8576C17.0942 13.8546 17.1028 13.8516 17.1114 13.8486C17.321 13.7747 17.5195 13.6747 17.707 13.5487C17.959 13.3794 18.191 13.1629 18.4031 12.8994C18.7795 12.4203 18.9677 11.8044 18.9677 11.0515C18.9677 10.4127 18.808 9.83671 18.4886 9.32341C18.1807 8.81011 17.7187 8.40518 17.1027 8.1086C16.4982 7.81202 15.7682 7.66374 14.9127 7.66374C13.6237 7.66374 12.6028 7.99454 11.85 8.65612C11.221 9.2088 10.8389 9.95651 10.7035 10.8993C10.6769 11.085 10.6598 11.2784 10.6523 11.4793H13.5096C13.5439 11.0915 13.6636 10.7664 13.8689 10.504Z" fill="white"/>
</g>
<defs>
<linearGradient id="paint0_linear_4124_4667" x1="-5.60148" y1="6.78226" x2="37.2981" y2="8.45889" gradientUnits="userSpaceOnUse">
<stop stop-color="#828282"/>
<stop offset="1"/>
</linearGradient>
<clipPath id="clip0_4124_4667">
<rect width="29" height="29" fill="white" transform="translate(0.5)"/>
</clipPath>
</defs>
</svg>
