<svg width="30" height="29" viewBox="0 0 30 29" fill="none" xmlns="http://www.w3.org/2000/svg">
<g id="Step 2 Icon" clip-path="url(#clip0_4124_4631)">
<path id="2 BG Circle Vector" d="M29.5 14.5C29.5 6.49188 23.0081 0 15 0C6.99188 0 0.5 6.49188 0.5 14.5C0.5 22.5081 6.99188 29 15 29C23.0081 29 29.5 22.5081 29.5 14.5Z" fill="url(#paint0_linear_4124_4631)"/>
<path id="2 Vector" fill-rule="evenodd" clip-rule="evenodd" d="M10.1574 17.8208L10.3767 17.6466C10.5705 17.4927 10.7102 17.3812 10.7968 17.3114C10.841 17.2757 10.868 17.2537 10.8809 17.2429C10.8819 17.242 10.8828 17.2412 10.8836 17.2406C10.8792 17.2444 10.8704 17.2524 10.8606 17.2621C10.8564 17.2664 10.8484 17.2744 10.8389 17.2851C10.8327 17.292 10.8099 17.3176 10.7861 17.3542C10.7752 17.3709 10.7487 17.4128 10.7271 17.472C10.7141 17.5075 10.6501 17.6839 10.7357 17.8916C10.7587 17.9476 10.7875 17.9951 10.8197 18.0354C10.7934 18.0563 10.766 18.0781 10.7374 18.1008V20.2738H19.3266V17.8955H14.7069C14.9569 17.703 15.1983 17.5097 15.4312 17.3155C16.3988 16.5085 17.2182 15.6866 17.8894 14.8499C18.7221 13.8005 19.1384 12.6656 19.1384 11.445C19.1384 10.3272 18.7905 9.42034 18.0947 8.72454C17.4103 8.02874 16.3894 7.68083 15.032 7.68083C14.2449 7.68083 13.5263 7.83482 12.8761 8.1428C12.2374 8.45078 11.7184 8.92986 11.3191 9.58004C11.0114 10.096 10.8185 10.7125 10.7406 11.4297C10.7204 11.6162 10.7079 11.8095 10.7032 12.0097H13.5263C13.5263 11.4165 13.6461 10.9602 13.8856 10.6409C14.1366 10.3101 14.4788 10.1447 14.9122 10.1447C15.3457 10.1447 15.6708 10.2758 15.8875 10.5382C16.1042 10.8006 16.2126 11.1656 16.2126 11.6332C16.2126 12.2492 15.9902 12.8823 15.5453 13.5325C15.1004 14.1826 14.5529 14.8043 13.9027 15.3974C13.3524 15.9085 12.6243 16.5423 11.7183 17.2988C11.5727 17.4204 11.4226 17.5452 11.2678 17.6731C11.273 17.6696 11.2733 17.67 11.2687 17.6742C11.2687 17.6742 11.2688 17.6741 11.2687 17.6742C11.2647 17.6778 11.2571 17.6844 11.246 17.6936L10.8983 17.226C12.0124 16.3052 12.881 15.5547 13.5081 14.9724L13.5099 14.9707L13.5119 14.969C14.1328 14.4025 14.6498 13.8142 15.0666 13.2049C15.4638 12.6244 15.6326 12.1036 15.6326 11.6332C15.6326 11.2502 15.5439 11.033 15.4404 10.9076C15.3628 10.8137 15.224 10.7247 14.9122 10.7247C14.6515 10.7247 14.4843 10.812 14.3487 10.9901C14.2136 11.1711 14.1063 11.4851 14.1063 12.0097V12.5897H10.1094L10.1233 11.996C10.1479 10.954 10.3695 10.0398 10.821 9.28291L10.8229 9.27972L10.8249 9.27656C11.2776 8.53917 11.8777 7.98028 12.6243 7.62037L12.6279 7.61862C13.3627 7.27054 14.1673 7.10083 15.032 7.10083C16.4819 7.10083 17.6763 7.47313 18.5065 8.31613C19.3251 9.13559 19.7184 10.197 19.7184 11.445C19.7184 12.8094 19.2493 14.0691 18.3437 15.2104L18.3418 15.2129C17.7677 15.9285 17.0932 16.6292 16.3204 17.3155H19.9066V20.8538H10.1574V17.8208ZM10.8865 17.238C10.8866 17.2379 10.8857 17.2387 10.8836 17.2406C10.8854 17.239 10.8864 17.2381 10.8865 17.238Z" fill="white"/>
</g>
<defs>
<linearGradient id="paint0_linear_4124_4631" x1="-5.60148" y1="6.78226" x2="37.2981" y2="8.45889" gradientUnits="userSpaceOnUse">
<stop stop-color="#828282"/>
<stop offset="1"/>
</linearGradient>
<clipPath id="clip0_4124_4631">
<rect width="29" height="29" fill="white" transform="translate(0.5)"/>
</clipPath>
</defs>
</svg>
