<svg width="17" height="16" viewBox="0 0 17 16" fill="none" xmlns="http://www.w3.org/2000/svg">
<g id="SVG">
<g id="Group">
<path id="Vector" d="M15.0306 5.03057L7.0306 13.0306C6.96092 13.1005 6.87813 13.156 6.78696 13.1938C6.6958 13.2317 6.59806 13.2512 6.49935 13.2512C6.40064 13.2512 6.3029 13.2317 6.21173 13.1938C6.12057 13.156 6.03778 13.1005 5.9681 13.0306L2.4681 9.53057C2.39833 9.4608 2.34299 9.37798 2.30524 9.28683C2.26748 9.19568 2.24805 9.09798 2.24805 8.99932C2.24805 8.90066 2.26748 8.80296 2.30524 8.71181C2.34299 8.62066 2.39833 8.53783 2.4681 8.46807C2.53786 8.3983 2.62069 8.34296 2.71184 8.30521C2.80299 8.26745 2.90069 8.24802 2.99935 8.24802C3.09801 8.24802 3.19571 8.26745 3.28686 8.30521C3.37801 8.34296 3.46083 8.3983 3.5306 8.46807L6.49997 11.4374L13.9693 3.96932C14.1102 3.82842 14.3013 3.74927 14.5006 3.74927C14.6999 3.74927 14.891 3.82842 15.0318 3.96932C15.1727 4.11021 15.2519 4.30131 15.2519 4.50057C15.2519 4.69983 15.1727 4.89092 15.0318 5.03182L15.0306 5.03057Z" fill="#333333"/>
</g>
</g>
</svg>
